<?xml version="1.0" encoding="UTF-8" standalone="no"?>
<svg
   xmlns:dc="http://purl.org/dc/elements/1.1/"
   xmlns:cc="http://creativecommons.org/ns#"
   xmlns:rdf="http://www.w3.org/1999/02/22-rdf-syntax-ns#"
   xmlns:svg="http://www.w3.org/2000/svg"
   xmlns="http://www.w3.org/2000/svg"
   version="1.1"
   id="svg4149"
   viewBox="0 0 783.49047 438.41886"
   height="123.73154mm"
   width="221.11842mm">
  <defs
     id="defs4151" />
  <metadata
     id="metadata4154">
    <rdf:RDF>
      <cc:Work
         rdf:about="">
        <dc:format>image/svg+xml</dc:format>
        <dc:type
           rdf:resource="http://purl.org/dc/dcmitype/StillImage" />
        <dc:title></dc:title>
      </cc:Work>
    </rdf:RDF>
  </metadata>
  <g
     transform="translate(404.2327,72.899296)"
     id="layer1">
    <path
       id="path7"
       d="m -241.81815,-72.899296 -42.03552,99.239488 h -86.63452 c -15.00264,9.37e-4 -27.16637,-12.161062 -27.1637,-27.16369545 h -6.58081 V 67.734846 h 6.58081 v -0.329587 c 0.18685,-14.861156 12.2829,-26.810952 27.14539,-26.817627 h 10.07629 l -20.48035,43.905026 c -0.003,14.997289 12.15127,27.157522 27.14722,27.165522 15.00396,9.4e-4 27.16503,-12.161558 27.16369,-27.165522 l -20.03173,-42.934564 0.45044,-0.970462 h 125.52062 l 3.93311,9.475706 a 100.44643,100.44643 0 0 1 44.1632,-23.723146 h -18.82141 l -43.50586,-99.239488 z m -5.53895,49.169303 20.77515,50.070185 h -41.72424 z M -76.633231,-0.82350345 C -76.632294,14.17913 -88.792962,26.341533 -103.79693,26.340192 h -20.88317 a 100.44643,100.44643 0 0 1 47.032466,26.411136 100.44643,100.44643 0 0 1 7.593384,8.607787 V -0.82350345 Z M -349.91996,48.60216 l 16.74134,35.890498 h -33.50098 z m 70.49744,4.328615 c -6.39024,2.641237 -13.64326,5.560603 -19.31946,8.552849 l -15.09705,35.628664 c -5.30917,12.234602 -9.35087,21.238922 -12.12158,27.009892 -5.30917,11.08013 -9.69409,18.46649 -13.15613,22.15941 -2.30892,2.30759 -4.84649,4.1581 -7.61718,5.54078 -2.53981,1.38402 -5.88728,2.07825 -10.04334,2.07825 v 6.57714 h 68.56018 v -6.57714 c -6.69453,0 -11.54064,-0.57774 -14.54224,-1.73218 -6.00051,-2.30893 -9.00329,-6.57915 -9.00329,-12.81189 0,-3.92382 0.92458,-8.31057 2.77038,-13.15796 l 15.92835,-40.512082 5.88684,-14.196168 z"
       style="clip-rule:evenodd;fill:#cc0000;fill-opacity:1;fill-rule:nonzero;stroke-width:1.33463454;stroke-linejoin:round;stroke-miterlimit:1.41420996" />
    <path
       id="path2163"
       d="m -224.67188,189.83203 -54.3164,54.31641 9.94336,9.94336 54.3164,-54.31641 z"
       style="color:#000000;font-style:normal;font-variant:normal;font-weight:normal;font-stretch:normal;font-size:medium;line-height:normal;font-family:sans-serif;font-variant-ligatures:normal;font-variant-position:normal;font-variant-caps:normal;font-variant-numeric:normal;font-variant-alternates:normal;font-feature-settings:normal;text-indent:0;text-align:start;text-decoration:none;text-decoration-line:none;text-decoration-style:solid;text-decoration-color:#000000;letter-spacing:normal;word-spacing:normal;text-transform:none;writing-mode:lr-tb;direction:ltr;text-orientation:mixed;dominant-baseline:auto;baseline-shift:baseline;text-anchor:start;white-space:normal;shape-padding:0;clip-rule:nonzero;display:inline;overflow:visible;visibility:visible;opacity:1;isolation:auto;mix-blend-mode:normal;color-interpolation:sRGB;color-interpolation-filters:linearRGB;solid-color:#000000;solid-opacity:1;vector-effect:none;fill:#1a2531;fill-opacity:1;fill-rule:evenodd;stroke:none;stroke-width:14.06249905;stroke-linecap:butt;stroke-linejoin:miter;stroke-miterlimit:4;stroke-dasharray:none;stroke-dashoffset:0;stroke-opacity:1;color-rendering:auto;image-rendering:auto;shape-rendering:auto;text-rendering:auto;enable-background:accumulate" />
    <path
       id="path2165"
       d="m -255.05664,203.64258 -135.35938,135.36133 26.51563,26.51562 135.36133,-135.35937 z"
       style="color:#000000;font-style:normal;font-variant:normal;font-weight:normal;font-stretch:normal;font-size:medium;line-height:normal;font-family:sans-serif;font-variant-ligatures:normal;font-variant-position:normal;font-variant-caps:normal;font-variant-numeric:normal;font-variant-alternates:normal;font-feature-settings:normal;text-indent:0;text-align:start;text-decoration:none;text-decoration-line:none;text-decoration-style:solid;text-decoration-color:#000000;letter-spacing:normal;word-spacing:normal;text-transform:none;writing-mode:lr-tb;direction:ltr;text-orientation:mixed;dominant-baseline:auto;baseline-shift:baseline;text-anchor:start;white-space:normal;shape-padding:0;clip-rule:nonzero;display:inline;overflow:visible;visibility:visible;opacity:1;isolation:auto;mix-blend-mode:normal;color-interpolation:sRGB;color-interpolation-filters:linearRGB;solid-color:#000000;solid-opacity:1;vector-effect:none;fill:#1a2531;fill-opacity:1;fill-rule:evenodd;stroke:none;stroke-width:37.49999619;stroke-linecap:butt;stroke-linejoin:miter;stroke-miterlimit:4;stroke-dasharray:none;stroke-dashoffset:0;stroke-opacity:1;color-rendering:auto;image-rendering:auto;shape-rendering:auto;text-rendering:auto;enable-background:accumulate" />
    <path
       id="path2171"
       d="m -131.11086,44.526739 -19.42802,41.66303 c 0.009,19.977241 16.19824,36.181111 36.17547,36.189991 19.987899,0.003 36.190332,-16.20094 36.188539,-36.187089 -0.545069,-1.162379 -1.088182,-2.32977 -1.633045,-3.492742 A 79.701303,79.701303 0 0 0 -92.593331,65.80865 79.701303,79.701303 0 0 0 -99.126967,60.077005 l 12.188274,26.115666 h -44.629827 l 16.76344,-35.953173 a 79.701303,79.701303 0 0 0 -16.30578,-5.712759 z m -57.98331,8.898941 a 79.701303,79.701303 0 0 0 -16.21278,12.38297 79.701303,79.701303 0 0 0 -16.5455,24.160075 l 17.47099,42.097445 c 0,0 5.23129,13.37584 6.45808,17.98966 1.53971,4.61205 2.30428,8.30306 2.30429,11.06957 0,7.68792 -3.22883,12.76442 -9.68641,15.22335 -0.45792,0.17632 -0.96765,0.34085 -1.51826,0.49689 a 79.701303,79.701303 0 0 0 1.51681,1.67663 79.701303,79.701303 0 0 0 10.61916,8.89894 h 84.407 v -8.76672 c -10.45622,0 -18.1435,-2.30661 -23.06315,-6.91866 -4.61382,-4.92142 -10.7652,-15.98873 -18.45313,-33.21012 z"
       style="clip-rule:evenodd;fill:#cc0000;fill-opacity:1;fill-rule:nonzero;stroke-width:1.3346343;stroke-linejoin:round;stroke-miterlimit:1.41420996" />
    <g
       id="text2814"
       style="font-style:normal;font-weight:normal;font-size:98.82323456px;line-height:84.41121674px;font-family:sans-serif;letter-spacing:0px;word-spacing:0px;fill:#1a2531;fill-opacity:1;stroke:none;stroke-width:0.9375px;stroke-linecap:butt;stroke-linejoin:miter;stroke-opacity:1"
       aria-label="Arbiter2
Log
Search">
      <path
         id="path2838"
         style="font-style:normal;font-variant:normal;font-weight:500;font-stretch:normal;line-height:84.41121674px;font-family:Roboto;-inkscape-font-specification:'Roboto Medium';fill:#1a2531;fill-opacity:1;stroke-width:0.9375px"
         d="M 71.158972,81.15207 H 43.94398 L 38.250063,97.510017 H 25.559384 L 52.098827,27.252874 H 63.052379 L 89.640075,97.510017 H 76.901143 Z M 47.369981,71.308349 H 67.732972 L 57.551476,42.163216 Z" />
      <path
         id="path2840"
         style="font-style:normal;font-variant:normal;font-weight:500;font-stretch:normal;line-height:84.41121674px;font-family:Roboto;-inkscape-font-specification:'Roboto Medium';fill:#1a2531;fill-opacity:1;stroke-width:0.9375px"
         d="m 123.85183,56.011979 q -2.31617,-0.386028 -4.7771,-0.386028 -8.05834,0 -10.85705,6.176452 V 97.510017 H 96.492076 V 45.299695 H 107.6869 l 0.28952,5.838678 q 4.24631,-6.803748 11.77386,-6.803748 2.50918,0 4.1498,0.675549 z" />
      <path
         id="path2842"
         style="font-style:normal;font-variant:normal;font-weight:500;font-stretch:normal;line-height:84.41121674px;font-family:Roboto;-inkscape-font-specification:'Roboto Medium';fill:#1a2531;fill-opacity:1;stroke-width:0.9375px"
         d="m 177.07548,71.935645 q 0,12.15989 -5.45265,19.349667 -5.4044,7.189776 -14.91034,7.189776 -9.16817,0 -14.28305,-6.610734 l -0.57904,5.645663 H 131.23462 V 23.392591 h 11.72561 v 26.925472 q 5.06662,-5.983438 13.65575,-5.983438 9.5542,0 15.00685,7.093269 5.45265,7.093269 5.45265,19.832202 z m -11.72561,-1.013324 q 0,-8.492622 -2.99172,-12.738933 -2.99172,-4.24631 -8.68563,-4.24631 -7.62406,0 -10.71229,6.658987 v 21.521076 q 3.13648,6.803748 10.80879,6.803748 5.5009,0 8.49262,-4.101551 2.99172,-4.10155 3.08823,-12.401158 z" />
      <path
         id="path2844"
         style="font-style:normal;font-variant:normal;font-weight:500;font-stretch:normal;line-height:84.41121674px;font-family:Roboto;-inkscape-font-specification:'Roboto Medium';fill:#1a2531;fill-opacity:1;stroke-width:0.9375px"
         d="M 199.32036,97.510017 H 187.59475 V 45.299695 h 11.72561 z M 186.87095,31.740453 q 0,-2.702198 1.68887,-4.487579 1.73713,-1.785381 4.92186,-1.785381 3.18474,0 4.92186,1.785381 1.73713,1.785381 1.73713,4.487579 0,2.653944 -1.73713,4.439325 -1.73712,1.737127 -4.92186,1.737127 -3.18473,0 -4.92186,-1.737127 -1.68887,-1.785381 -1.68887,-4.439325 z" />
      <path
         id="path2846"
         style="font-style:normal;font-variant:normal;font-weight:500;font-stretch:normal;line-height:84.41121674px;font-family:Roboto;-inkscape-font-specification:'Roboto Medium';fill:#1a2531;fill-opacity:1;stroke-width:0.9375px"
         d="m 226.82487,32.609016 v 12.690679 h 9.21643 v 8.685636 h -9.21643 v 29.145134 q 0,2.991719 1.15809,4.342818 1.20634,1.302845 4.24631,1.302845 2.02665,0 4.10155,-0.482535 v 9.071664 q -4.00504,1.109831 -7.72056,1.109831 -13.51099,0 -13.51099,-14.910341 V 53.985331 h -8.58913 v -8.685636 h 8.58913 V 32.609016 Z" />
      <path
         id="path2848"
         style="font-style:normal;font-variant:normal;font-weight:500;font-stretch:normal;line-height:84.41121674px;font-family:Roboto;-inkscape-font-specification:'Roboto Medium';fill:#1a2531;fill-opacity:1;stroke-width:0.9375px"
         d="m 267.93688,98.475088 q -11.14657,0 -18.09508,-6.996762 -6.90025,-7.045016 -6.90025,-18.722371 v -1.447606 q 0,-7.817072 2.99171,-13.945271 3.03998,-6.176452 8.49263,-9.602453 5.45265,-3.426 12.15989,-3.426 10.66403,0 16.45445,6.803748 5.83868,6.803748 5.83868,19.253159 v 4.728846 h -34.11525 q 0.53079,6.465974 4.29457,10.229749 3.81202,3.763776 9.55419,3.763776 8.05834,0 13.12497,-6.514227 l 6.32121,6.031691 q -3.13648,4.680593 -8.39612,7.286284 -5.21138,2.557437 -11.7256,2.557437 z m -1.39936,-44.731025 q -4.82535,0 -7.81707,3.377748 -2.94346,3.377747 -3.76377,9.409439 h 22.34138 v -0.868564 q -0.38603,-5.886931 -3.13648,-8.87865 -2.75045,-3.039973 -7.62406,-3.039973 z" />
      <path
         id="path2850"
         style="font-style:normal;font-variant:normal;font-weight:500;font-stretch:normal;line-height:84.41121674px;font-family:Roboto;-inkscape-font-specification:'Roboto Medium';fill:#1a2531;fill-opacity:1;stroke-width:0.9375px"
         d="m 325.35857,56.011979 q -2.31617,-0.386028 -4.7771,-0.386028 -8.05834,0 -10.85705,6.176452 V 97.510017 H 297.99881 V 45.299695 h 11.19482 l 0.28952,5.838678 q 4.24631,-6.803748 11.77387,-6.803748 2.50918,0 4.1498,0.675549 z" />
      <path
         id="path2852"
         style="font-style:normal;font-variant:normal;font-weight:500;font-stretch:normal;line-height:84.41121674px;font-family:Roboto;-inkscape-font-specification:'Roboto Medium';fill:#1a2531;fill-opacity:1;stroke-width:0.9375px"
         d="m 379.25777,97.510017 h -47.24021 v -8.05834 l 23.40297,-25.526118 q 5.06662,-5.645664 7.18977,-9.409439 2.17141,-3.812029 2.17141,-7.624058 0,-5.018368 -2.84696,-8.106594 -2.7987,-3.088226 -7.5758,-3.088226 -5.69392,0 -8.8304,3.474255 -3.13648,3.474254 -3.13648,9.505946 h -11.72561 q 0,-6.41772 2.89522,-11.532595 2.94346,-5.163128 8.34786,-8.010086 5.45265,-2.846959 12.54592,-2.846959 10.22975,0 16.11668,5.163128 5.93518,5.114875 5.93518,14.186539 0,5.259635 -2.99172,11.050059 -2.94346,5.74217 -9.69896,13.076707 l -17.17826,18.384596 h 32.61939 z" />
      <path
         id="path2854"
         style="font-style:normal;font-variant:normal;font-weight:500;font-stretch:normal;line-height:84.41121674px;font-family:Roboto;-inkscape-font-specification:'Roboto Medium';fill:#1a2531;fill-opacity:1;stroke-width:0.9375px"
         d="m 44.040487,173.13909 h 31.895585 v 9.74721 H 31.832344 v -70.25714 h 12.208143 z" />
      <path
         id="path2856"
         style="font-style:normal;font-variant:normal;font-weight:500;font-stretch:normal;line-height:84.41121674px;font-family:Roboto;-inkscape-font-specification:'Roboto Medium';fill:#1a2531;fill-opacity:1;stroke-width:0.9375px"
         d="m 81.967762,156.29861 q 0,-7.67232 3.039973,-13.80051 3.039972,-6.17646 8.540875,-9.4577 5.500903,-3.32949 12.64243,-3.32949 10.56752,0 17.13,6.80375 6.61073,6.80375 7.14152,18.04682 l 0.0483,2.75045 q 0,7.72057 -2.99172,13.80051 -2.94347,6.07995 -8.49262,9.40944 -5.50091,3.32949 -12.73894,3.32949 -11.050056,0 -17.709044,-7.33453 -6.610734,-7.38279 -6.610734,-19.63919 z m 11.725609,1.01332 q 0,8.05834 3.329493,12.64243 3.329496,4.53583 9.264676,4.53583 5.93519,0 9.21643,-4.63234 3.32949,-4.63234 3.32949,-13.55924 0,-7.91358 -3.426,-12.54592 -3.37775,-4.63234 -9.21642,-4.63234 -5.74217,0 -9.119922,4.58408 -3.377747,4.53584 -3.377747,13.6075 z" />
      <path
         id="path2858"
         style="font-style:normal;font-variant:normal;font-weight:500;font-stretch:normal;line-height:84.41121674px;font-family:Roboto;-inkscape-font-specification:'Roboto Medium';fill:#1a2531;fill-opacity:1;stroke-width:0.9375px"
         d="m 138.47265,156.39511 q 0,-12.15989 5.69392,-19.39792 5.74217,-7.28628 15.19986,-7.28628 8.92691,0 14.04178,6.22471 l 0.53079,-5.25964 h 10.56752 v 50.61796 q 0,10.278 -6.41772,16.21318 -6.36946,5.93519 -17.22651,5.93519 -5.74217,0 -11.24307,-2.41268 -5.45265,-2.36442 -8.29961,-6.22471 l 5.54916,-7.04501 q 5.40439,6.41772 13.31797,6.41772 5.83868,0 9.21643,-3.18473 3.37774,-3.13648 3.37774,-9.26468 v -3.52251 q -5.06662,5.64566 -13.51098,5.64566 -9.16818,0 -15.00685,-7.28628 -5.79043,-7.28628 -5.79043,-20.16998 z m 11.67736,1.01333 q 0,7.86532 3.18473,12.40116 3.23299,4.48757 8.9269,4.48757 7.09327,0 10.51927,-6.07994 v -22.96868 q -3.32949,-5.93519 -10.42276,-5.93519 -5.79042,0 -9.02341,4.58409 -3.18473,4.58408 -3.18473,13.51099 z" />
      <path
         id="path2860"
         style="font-style:normal;font-variant:normal;font-weight:500;font-stretch:normal;line-height:84.41121674px;font-family:Roboto;-inkscape-font-specification:'Roboto Medium';fill:#1a2531;fill-opacity:1;stroke-width:0.9375px"
         d="m 68.553282,250.16751 q 0,-4.63234 -3.28124,-7.14152 -3.232987,-2.50918 -11.725609,-5.06662 -8.492622,-2.55744 -13.510989,-5.69392 -9.602453,-6.03169 -9.602453,-15.73065 0,-8.49262 6.900255,-13.99352 6.948509,-5.50091 17.998568,-5.50091 7.334537,0 13.076707,2.7022 5.742171,2.7022 9.023411,7.72057 3.28124,4.97011 3.28124,11.05006 h -12.15989 q 0,-5.50091 -3.474255,-8.58913 -3.426,-3.13648 -9.84372,-3.13648 -5.983438,0 -9.312932,2.55743 -3.28124,2.55744 -3.28124,7.14153 0,3.86028 3.570761,6.46597 3.570762,2.55744 11.773862,5.01837 8.203101,2.41267 13.173214,5.54915 4.970114,3.08823 7.286284,7.14153 2.316169,4.00504 2.316169,9.40944 0,8.78214 -6.755494,13.99352 -6.707241,5.16313 -18.239835,5.16313 -7.624059,0 -14.041778,-2.79871 -6.369467,-2.84696 -9.940228,-7.81707 -3.522508,-4.97011 -3.522508,-11.58085 h 12.208144 q 0,5.98344 3.956789,9.26468 3.95679,3.28124 11.339581,3.28124 6.369466,0 9.554199,-2.55744 3.232987,-2.60569 3.232987,-6.852 z" />
      <path
         id="path2862"
         style="font-style:normal;font-variant:normal;font-weight:500;font-stretch:normal;line-height:84.41121674px;font-family:Roboto;-inkscape-font-specification:'Roboto Medium';fill:#1a2531;fill-opacity:1;stroke-width:0.9375px"
         d="m 113.33256,269.22766 q -11.14657,0 -18.095076,-6.99676 -6.900255,-7.04502 -6.900255,-18.72237 v -1.44761 q 0,-7.81707 2.991719,-13.94527 3.039973,-6.17645 8.492622,-9.60245 5.45265,-3.42601 12.15989,-3.42601 10.66403,0 16.45445,6.80375 5.83868,6.80375 5.83868,19.25316 v 4.72885 h -34.11525 q 0.53079,6.46597 4.29457,10.22975 3.81203,3.76377 9.5542,3.76377 8.05834,0 13.12496,-6.51422 l 6.32121,6.03169 q -3.13648,4.68059 -8.39611,7.28628 -5.21138,2.55744 -11.72561,2.55744 z m -1.39935,-44.73103 q -4.82536,0 -7.81708,3.37775 -2.94346,3.37775 -3.76377,9.40944 h 22.34138 v -0.86856 q -0.38602,-5.88693 -3.13648,-8.87865 -2.75045,-3.03998 -7.62405,-3.03998 z" />
      <path
         id="path2864"
         style="font-style:normal;font-variant:normal;font-weight:500;font-stretch:normal;line-height:84.41121674px;font-family:Roboto;-inkscape-font-specification:'Roboto Medium';fill:#1a2531;fill-opacity:1;stroke-width:0.9375px"
         d="m 174.61454,268.26259 q -0.77206,-1.49586 -1.3511,-4.87361 -5.59741,5.83868 -13.704,5.83868 -7.86533,0 -12.83544,-4.48758 -4.97012,-4.48758 -4.97012,-11.09831 0,-8.34786 6.17646,-12.78719 6.2247,-4.48758 17.7573,-4.48758 h 7.18977 v -3.426 q 0,-4.0533 -2.26791,-6.46597 -2.26792,-2.46093 -6.90026,-2.46093 -4.00504,0 -6.56248,2.02665 -2.55744,1.97839 -2.55744,5.06662 h -11.7256 q 0,-4.29457 2.84695,-8.01009 2.84696,-3.76377 7.72057,-5.88693 4.92186,-2.12316 10.95355,-2.12316 9.16817,0 14.62082,4.63234 5.45265,4.58409 5.59741,12.93195 v 23.54772 q 0,7.04502 1.9784,11.24308 v 0.82031 z m -12.88369,-8.44437 q 3.47425,0 6.51422,-1.68887 3.08823,-1.68888 4.63234,-4.53584 v -9.84372 h -6.32121 q -6.51423,0 -9.79547,2.26792 -3.28124,2.26792 -3.28124,6.41772 0,3.37775 2.21966,5.40439 2.26792,1.9784 6.0317,1.9784 z" />
      <path
         id="path2866"
         style="font-style:normal;font-variant:normal;font-weight:500;font-stretch:normal;line-height:84.41121674px;font-family:Roboto;-inkscape-font-specification:'Roboto Medium';fill:#1a2531;fill-opacity:1;stroke-width:0.9375px"
         d="m 224.21918,226.76455 q -2.31617,-0.38603 -4.7771,-0.38603 -8.05834,0 -10.85705,6.17645 v 35.70762 h -11.72561 v -52.21032 h 11.19482 l 0.28952,5.83867 q 4.24632,-6.80375 11.77387,-6.80375 2.50918,0 4.1498,0.67555 z" />
      <path
         id="path2868"
         style="font-style:normal;font-variant:normal;font-weight:500;font-stretch:normal;line-height:84.41121674px;font-family:Roboto;-inkscape-font-specification:'Roboto Medium';fill:#1a2531;fill-opacity:1;stroke-width:0.9375px"
         d="m 252.10971,259.86647 q 4.39107,0 7.28629,-2.55743 2.89521,-2.55744 3.08822,-6.32122 h 11.05006 q -0.19301,4.87361 -3.03997,9.11992 -2.84696,4.19806 -7.72057,6.65899 -4.8736,2.46093 -10.51927,2.46093 -10.95355,0 -17.37127,-7.09327 -6.41772,-7.09327 -6.41772,-19.59094 v -1.20633 q 0,-11.91863 6.36947,-19.06015 6.36946,-7.18978 17.37127,-7.18978 9.31293,0 15.15161,5.45265 5.88693,5.4044 6.17645,14.2348 h -11.05006 q -0.19301,-4.48758 -3.08822,-7.38279 -2.84696,-2.89522 -7.28629,-2.89522 -5.69391,0 -8.78214,4.14981 -3.08823,4.10155 -3.13648,12.49766 v 1.88189 q 0,8.49262 3.03997,12.69068 3.08823,4.1498 8.87865,4.1498 z" />
      <path
         id="path2870"
         style="font-style:normal;font-variant:normal;font-weight:500;font-stretch:normal;line-height:84.41121674px;font-family:Roboto;-inkscape-font-specification:'Roboto Medium';fill:#1a2531;fill-opacity:1;stroke-width:0.9375px"
         d="m 293.94554,221.74618 q 5.74217,-6.65899 14.52431,-6.65899 16.69572,0 16.93699,19.06015 v 34.11525 h -11.72561 v -33.68097 q 0,-5.40439 -2.36442,-7.62406 -2.31617,-2.26791 -6.852,-2.26791 -7.04502,0 -10.51927,6.27296 v 37.29998 h -11.72561 v -74.11743 h 11.72561 z" />
    </g>
    <path
       id="path2161"
       d="m -69.359994,44.464863 c -43.705076,-43.70507606 -114.921626,-43.70507676 -158.626696,-2e-6 -43.70508,43.705083 -43.7037,114.920249 0.001,158.625319 43.70508,43.70508 114.91887,43.70508 158.623948,0 43.705075,-43.70508 43.706455,-114.920241 0.0014,-158.625317 z M -85.93281,61.037679 c 34.748463,34.748464 34.74708,90.731231 -0.0014,125.479681 -34.74846,34.74847 -90.72985,34.74847 -125.47831,1e-5 -34.74846,-34.74846 -34.74984,-90.731229 -0.001,-125.479693 34.74846,-34.748458 90.73261,-34.74846 125.481067,2e-6 z"
       style="color:#000000;font-style:normal;font-variant:normal;font-weight:normal;font-stretch:normal;font-size:medium;line-height:normal;font-family:sans-serif;font-variant-ligatures:normal;font-variant-position:normal;font-variant-caps:normal;font-variant-numeric:normal;font-variant-alternates:normal;font-feature-settings:normal;text-indent:0;text-align:start;text-decoration:none;text-decoration-line:none;text-decoration-style:solid;text-decoration-color:#000000;letter-spacing:normal;word-spacing:normal;text-transform:none;writing-mode:lr-tb;direction:ltr;text-orientation:mixed;dominant-baseline:auto;baseline-shift:baseline;text-anchor:start;white-space:normal;shape-padding:0;clip-rule:nonzero;display:inline;overflow:visible;visibility:visible;opacity:1;isolation:auto;mix-blend-mode:normal;color-interpolation:sRGB;color-interpolation-filters:linearRGB;solid-color:#000000;solid-opacity:1;vector-effect:none;fill:#1a2531;fill-opacity:1;fill-rule:nonzero;stroke:none;stroke-width:23.43749809;stroke-linecap:butt;stroke-linejoin:miter;stroke-miterlimit:4;stroke-dasharray:none;stroke-dashoffset:0;stroke-opacity:1;color-rendering:auto;image-rendering:auto;shape-rendering:auto;text-rendering:auto;enable-background:accumulate" />
  </g>
</svg>
